<svg width="268" height="200" viewBox="0 0 268 200" fill="none" xmlns="http://www.w3.org/2000/svg">
<path opacity="0.05" d="M132.69 134.72C169.892 134.72 200.05 104.562 200.05 67.36C200.05 30.1581 169.892 0 132.69 0C95.4882 0 65.3301 30.1581 65.3301 67.36C65.3301 104.562 95.4882 134.72 132.69 134.72Z" fill="#FFC973"/>
<path d="M132.69 108.99C155.681 108.99 174.32 90.3516 174.32 67.36C174.32 44.3684 155.681 25.73 132.69 25.73C109.698 25.73 91.0596 44.3684 91.0596 67.36C91.0596 90.3516 109.698 108.99 132.69 108.99Z" fill="#FFC973"/>
<path d="M265.03 199.69L132.69 67.3599L0.349609 199.69H265.03Z" fill="#574E9E"/>
<path d="M265.03 199.69L132.69 67.3599L0.349609 199.69H265.03Z" fill="#574E9E"/>
<path d="M267.979 199.69L132.689 67.3599L190.969 199.69H267.979Z" fill="url(#paint0_linear_164_2885)"/>
<defs>
<linearGradient id="paint0_linear_164_2885" x1="132.689" y1="133.52" x2="267.979" y2="133.52" gradientUnits="userSpaceOnUse">
<stop stop-color="#FDC776" stop-opacity="0.97"/>
<stop offset="1" stop-color="#C082CF" stop-opacity="0"/>
</linearGradient>
</defs>
</svg>
